<?xml version="1.0" encoding="UTF-8" standalone="no"?><!DOCTYPE svg PUBLIC "-//W3C//DTD SVG 1.1//EN" "http://www.w3.org/Graphics/SVG/1.1/DTD/svg11.dtd"><svg width="100%" height="100%" viewBox="0 0 750 750" version="1.1" xmlns="http://www.w3.org/2000/svg" xmlns:xlink="http://www.w3.org/1999/xlink" xml:space="preserve" xmlns:serif="http://www.serif.com/" style="fill-rule:evenodd;clip-rule:evenodd;stroke-linejoin:round;stroke-miterlimit:2;"><rect id="LOGO-KASTELLO-1000X1000" serif:id="LOGO KASTELLO 1000X1000" x="0" y="0" width="750" height="750" style="fill:none;"/><g><path d="M87.916,104.362l287.086,-71.562l290.059,67.845l4.647,240.709l-59.48,165.68l-92.938,123.357l-97.612,63.574l-44.676,25.646l-73.328,-25.646l-112.455,-123.054l-90.027,-178.557l-27.075,-170.89l5.576,-118.961l10.223,1.859Z" style="fill:#4d4d4f;"/><path d="M600.698,468.368c-39.504,93.55 -107.118,180.438 -225.831,231.73c-118.55,-51.316 -186.08,-138.131 -225.549,-231.621c-40.196,-95.478 -49.556,-197.631 -49.512,-269.963c-0.01,-29.624 1.528,-54.234 3.066,-71.328c0.262,-2.908 0.524,-5.602 0.771,-8.065c38.361,-1.587 129.359,-11.922 270.26,-66.942c20.654,8.05 35.928,14.889 50.159,21.084c23.834,10.424 45.472,19.181 79.769,26.271c31.716,6.586 74.23,12.09 142.399,17.984c1.741,16.777 3.981,45.185 3.981,80.871c0.035,72.337 -9.316,174.49 -49.512,269.978m86.221,-374.287l-2.64,-16.817l-16.97,-1.394c-103.84,-8.515 -150.216,-16.041 -181.754,-25.451c-15.853,-4.722 -28.541,-10.003 -44.216,-16.827c-15.62,-6.809 -34.01,-15.067 -59.851,-24.872l-7.852,-2.977l-7.808,3.095c-158.098,62.754 -250.406,67.248 -273.869,67.263c-2.23,0 -3.842,-0.049 -4.826,-0.079c-0.494,-0.02 -0.836,-0.035 -1.019,-0.049c-0.079,0 -0.124,0 -0.143,-0.005l-0.015,0l0,0.005l-19.779,-1.439l-3.095,19.665c-0.109,0.831 -6.552,42.08 -6.577,104.314c0.059,75.971 9.514,183.311 52.914,286.74c43.207,103.315 121.833,203.046 257.26,258.353c2.685,1.098 5.459,1.622 8.188,1.622c3.1,0 6.161,-0.677 8.93,-1.933c135.14,-55.342 213.637,-154.958 256.8,-258.16c43.4,-103.429 52.854,-210.769 52.899,-286.745c-0.01,-62.23 -6.453,-103.483 -6.577,-104.309" style="fill:#f36f21;fill-rule:nonzero;"/><path d="M639.77,333.563l-146.028,3.664l149.949,-29.09c0.193,-1.389 0.336,-2.754 0.509,-4.144l-152.407,20.456l155.472,-48.018c0.124,-1.226 0.227,-2.443 0.341,-3.654l-159.052,39.177l161.184,-69.488c0.049,-1.009 0.074,-1.978 0.134,-2.977l-165.787,60.385l166.712,-94.138c0,-0.687 0.015,-1.385 0.015,-2.077l-172.403,84.689l171.775,-122.719c-0.01,-0.297 -0.015,-0.588 -0.03,-0.89l-178.559,112.76l168.527,-149.578l-176.384,139.521l140.253,-153.589c-0.43,-0.045 -0.885,-0.089 -1.325,-0.134l-147.769,144.579l109.887,-148.832c-0.92,-0.114 -1.859,-0.227 -2.764,-0.341l-116.844,141.029l85.737,-145.454c-1.197,-0.193 -2.354,-0.391 -3.531,-0.583l-92.674,138.997l66.022,-144.02c-1.315,-0.287 -2.626,-0.569 -3.906,-0.855l-73.261,139.002l49.383,-145.242c-1.335,-0.401 -2.675,-0.806 -3.976,-1.216l-57.067,141.825l34.445,-149.826c-1.291,-0.509 -2.571,-1.024 -3.852,-1.538l-42.673,148.016l19.769,-157.772c-1.202,-0.519 -2.413,-1.048 -3.624,-1.582l-28.487,157.322l3.926,-167.824c-1.083,-0.45 -2.146,-0.895 -3.273,-1.355l-13.128,168.507l-13.217,-169.54c-1.088,0.405 -2.151,0.806 -3.229,1.211l3.966,169.001l-28.942,-159.844c-1.177,0.42 -2.344,0.821 -3.521,1.241l20.12,160.635l-43.964,-152.506c-1.226,0.405 -2.448,0.816 -3.669,1.211l35.553,154.642l-59.228,-147.19c-1.221,0.381 -2.458,0.747 -3.684,1.113l51.252,150.711l-75.744,-143.699c-1.172,0.326 -2.364,0.658 -3.526,0.974l68.124,148.599l-94.593,-141.86c-1.048,0.247 -2.151,0.519 -3.189,0.771l87.309,148.13l-117.334,-141.622c-0.865,0.163 -1.736,0.341 -2.586,0.509l110.203,149.257l-146.364,-143.195c-0.465,0.064 -0.94,0.134 -1.404,0.198l138.937,152.14l-176.399,-139.521l168.532,149.578l-178.545,-112.755c-0.025,0.297 -0.035,0.588 -0.049,0.885l171.79,122.719l-172.413,-84.689c0,0.692 0.01,1.389 0.01,2.077l166.727,94.138l-165.797,-60.385c0.045,0.999 0.079,1.963 0.129,2.972l161.189,69.493l-159.062,-39.192c0.104,1.221 0.218,2.438 0.331,3.659l155.492,48.028l-152.427,-20.456c0.178,1.389 0.326,2.749 0.509,4.144l149.964,29.09l-146.058,-3.664c0.262,1.498 0.509,2.997 0.771,4.5l144.634,12.08l-140.06,11.694c0.326,1.572 0.712,3.155 1.063,4.722l139.639,-3.496l-134.274,26.044c0.42,1.617 0.816,3.229 1.236,4.846l135.001,-18.113l-128.865,39.795c0.485,1.622 1.053,3.234 1.553,4.856l130.551,-32.156l-123.465,53.23c0.569,1.607 1.132,3.209 1.721,4.816l126.224,-45.971l-118.15,66.709c0.351,0.836 0.658,1.686 1.009,2.517c0.307,0.722 0.633,1.444 0.94,2.166l121.878,-59.866l-112.572,80.416c0.712,1.488 1.429,2.977 2.151,4.455l117.225,-74.018l-106.525,94.538c0.771,1.389 1.518,2.784 2.299,4.168l112.092,-88.659l-99.74,109.214c0.801,1.266 1.607,2.527 2.423,3.793l106.149,-103.859l-91.883,124.449c0.831,1.118 1.632,2.24 2.472,3.348l99.127,-119.653l-82.646,140.208c0.816,0.949 1.617,1.899 2.438,2.843l90.682,-136.005l-71.684,156.353c0.771,0.761 1.528,1.543 2.299,2.309l80.53,-152.792l-58.724,172.71c0.692,0.579 1.36,1.177 2.052,1.75l68.331,-169.822l-43.469,189.057c0.554,0.396 1.122,0.781 1.676,1.172l53.873,-186.886l-25.693,205.123c0.376,0.223 0.776,0.44 1.147,0.663l36.888,-203.753l-5.162,220.679c0.158,0.069 0.316,0.148 0.475,0.227l17.168,-220.234l17.153,220.115c0.158,-0.079 0.326,-0.153 0.485,-0.232l-5.162,-220.555l36.868,203.639c0.386,-0.223 0.781,-0.44 1.152,-0.668l-25.678,-205.004l53.848,186.783c0.554,-0.391 1.122,-0.776 1.676,-1.177l-43.444,-188.948l68.297,169.728c0.692,-0.574 1.36,-1.172 2.052,-1.755l-58.689,-172.611l80.486,152.708c0.781,-0.766 1.528,-1.548 2.299,-2.314l-71.639,-156.264l90.637,135.936c0.816,-0.954 1.622,-1.909 2.438,-2.858l-82.607,-140.124l99.078,119.593c0.841,-1.113 1.656,-2.235 2.482,-3.353l-91.839,-124.385l106.099,103.81c0.816,-1.261 1.612,-2.537 2.418,-3.798l-99.676,-109.16l112.028,88.625c0.776,-1.389 1.538,-2.784 2.309,-4.173l-106.48,-94.499l117.18,73.988c0.722,-1.483 1.439,-2.972 2.151,-4.46l-112.518,-80.382l121.824,59.841c0.326,-0.752 0.668,-1.498 0.989,-2.255c0.336,-0.806 0.633,-1.622 0.954,-2.428l-118.09,-66.685l126.17,45.956c0.583,-1.602 1.152,-3.214 1.731,-4.821l-123.431,-53.21l130.506,32.151c0.509,-1.622 1.063,-3.239 1.563,-4.861l-128.83,-39.78l134.967,18.108c0.43,-1.622 0.826,-3.234 1.236,-4.856l-134.255,-26.034l139.62,3.496c0.351,-1.572 0.737,-3.15 1.078,-4.722l-140.04,-11.694l144.614,-12.08c0.262,-1.498 0.509,-2.997 0.757,-4.5" style="fill:#fff;fill-rule:nonzero;"/><path d="M300.384,507.034c-9.974,0 -19.838,-0.85 -29.303,-2.502l-9.558,-1.701l0,-304.388l9.558,-1.691c18.899,-3.338 39.484,-3.343 58.936,-0.005l9.613,1.647l0,304.487l-9.613,1.652c-9.716,1.656 -19.68,2.502 -29.634,2.502" style="fill:#f36f21;fill-rule:nonzero;"/><path d="M300.384,507.034c-9.974,0 -19.838,-0.85 -29.303,-2.502l-9.558,-1.701l0,-304.388l9.558,-1.691c18.899,-3.338 39.484,-3.343 58.936,-0.005l9.613,1.647l0,304.487l-9.613,1.652c-9.716,1.656 -19.68,2.502 -29.634,2.502Z" style="fill:#f36f21;fill-rule:nonzero;"/><path d="M284.669,483.081c10.374,1.088 21.228,1.078 31.829,-0.03l0,-264.83c-10.602,-1.122 -21.445,-1.127 -31.829,-0.025l0,264.885Z" style="fill:#f36f21;fill-rule:nonzero;"/><path d="M445.383,507.034c-9.637,0 -19.927,-0.831 -30.593,-2.472l-5.617,-0.87l-64.232,-116.053l55.47,-106.609l5.795,-0.89c20.916,-3.219 42.96,-3.362 63.307,0.02l16.135,2.68l-56.276,101.901l65.043,117.413l-16.55,2.413c-11.185,1.642 -22.098,2.467 -32.482,2.467" style="fill:#f36f21;fill-rule:nonzero;"/><path d="M445.383,507.034c-9.637,0 -19.927,-0.831 -30.593,-2.472l-5.617,-0.87l-64.232,-116.053l55.47,-106.609l5.795,-0.89c20.916,-3.219 42.96,-3.362 63.307,0.02l16.135,2.68l-56.276,101.901l65.043,117.413l-16.55,2.413c-11.185,1.642 -22.098,2.467 -32.482,2.467Z" style="fill:none;fill-rule:nonzero;"/><path d="M423.87,482.472c7.506,0.94 14.72,1.419 21.515,1.419c3.985,0 8.07,-0.129 12.238,-0.405l-54.689,-98.732l46.184,-83.64c-11.116,-0.677 -22.533,-0.262 -33.649,1.093l-44.28,85.094l52.681,95.171Z" style="fill:#f36f21;fill-rule:nonzero;"/></g></svg>